<svg xmlns="http://www.w3.org/2000/svg" width="400" height="155"><g fill="#2D2D2D"><path d="M115.17 111.8c-.92.96-2.08 2.05-3.5 3.28-1.42 1.22-3 2.45-4.78 3.7s-3.7 2.45-5.74 3.63c-2.05 1.2-4.14 2.23-6.28 3.15-2.14.92-4.3 1.65-6.45 2.2-2.16.54-4.25.8-6.25.8-1.4 0-2.8-.23-4.23-.7-1.4-.5-2.7-1.37-3.86-2.66-1.17-1.3-2.1-3.08-2.86-5.35-.74-2.27-1.1-5.2-1.1-8.83 0-1.53.1-3.18.32-4.95s.5-3.67.85-5.73c-2.44 4.94-5.2 9.3-8.27 13.06-3.08 3.78-6.35 6.94-9.82 9.5-3.46 2.55-7.05 4.48-10.76 5.8-3.7 1.3-7.42 1.96-11.13 1.96-4.05 0-7.9-.7-11.55-2.13-3.64-1.42-6.86-3.54-9.65-6.35-2.8-2.82-5-6.32-6.65-10.5S1 102.57 1 97c0-4.23.5-8.66 1.47-13.28.98-4.63 2.4-9.3 4.3-14 1.87-4.73 4.14-9.4 6.8-14.02 2.66-4.63 5.7-9.03 9.1-13.2s7.13-8.02 11.16-11.58c4.04-3.56 8.35-6.63 12.93-9.23 4.58-2.6 9.4-4.65 14.47-6.13 5.06-1.5 10.32-2.23 15.78-2.23 1.5 0 2.68.12 3.57.36.9.24 1.58.55 2.03.92.46.37.76.75.9 1.14.12.4.18.75.18 1.05 0 .23 0 .43-.03.6-.02.17-.03.3-.03.4v.32c1.17.7 2.37 1.12 3.6 1.28 1.22.15 2.42.28 3.6.4 1.18.1 2.3.33 3.34.68 1.04.35 1.96 1.03 2.75 2.06s1.4 2.52 1.87 4.48c.46 1.97.7 4.63.7 8 0 2.6-.26 5.55-.76 8.83-.5 3.27-1.16 6.7-2 10.28-.82 3.57-1.75 7.2-2.77 10.86s-2.05 7.22-3.08 10.66c-1.02 3.45-2.02 6.7-2.98 9.76-.96 3.05-1.77 5.72-2.42 7.98-.13 1.93-.24 3.7-.33 5.37-.08 1.66-.13 3.4-.13 5.18 0 1.4.03 2.54.1 3.43.06.9.18 1.6.35 2.13.17.53.42.9.72 1.1.3.2.7.28 1.18.28.87 0 1.97-.23 3.3-.68 1.34-.46 2.75-1.05 4.26-1.77 1.5-.72 3.1-1.53 4.72-2.42 1.64-.9 3.2-1.78 4.72-2.68 1.5-.9 2.9-1.7 4.22-2.45 1.3-.74 2.4-1.36 3.27-1.84l3.34 12.77zM84.2 27.16c-1.52-.44-3.1-.76-4.74-.95s-3.22-.3-4.75-.3c-3.52 0-7 .7-10.46 2.04-3.45 1.35-6.8 3.2-10.05 5.53-3.26 2.34-6.36 5.1-9.3 8.25-2.95 3.16-5.7 6.57-8.25 10.2-2.56 3.66-4.86 7.44-6.9 11.37-2.06 3.92-3.83 7.84-5.3 11.74-1.5 3.9-2.63 7.7-3.42 11.4-.78 3.68-1.18 7.08-1.18 10.17 0 6.17 1.24 10.94 3.7 14.32 2.47 3.38 6.3 5.07 11.5 5.07 3.22 0 6.3-.68 9.2-2.04 2.9-1.35 5.6-3.13 8.07-5.33 2.5-2.2 4.77-4.7 6.84-7.47 2.08-2.77 3.9-5.57 5.44-8.4 1.55-2.85 2.82-5.58 3.83-8.22 1-2.64 1.72-4.92 2.16-6.85l13.6-50.55zM122.44 126.47c-2.36 0-4.55-1.04-6.58-3.12-2.03-2.07-3.8-4.85-5.3-8.34-1.5-3.48-2.7-7.53-3.54-12.14-.85-4.6-1.27-9.43-1.27-14.5 0-3.88.28-8.1.85-12.66.56-4.56 1.4-9.27 2.48-14.1 1.1-4.86 2.4-9.72 3.9-14.6 1.5-4.9 3.2-9.6 5.1-14.1s3.97-8.68 6.2-12.6c2.22-3.9 4.55-7.3 7-10.2 2.44-2.9 5-5.18 7.66-6.84 2.66-1.66 5.37-2.5 8.12-2.5 1.87 0 3.42.44 4.64 1.3 1.23.84 2.2 1.96 2.88 3.36.7 1.4 1.2 2.98 1.48 4.74.28 1.77.42 3.57.42 5.4 0 4.1-.47 8.3-1.4 12.54s-2.2 8.53-3.8 12.83c-1.6 4.3-3.44 8.6-5.54 12.93-2.1 4.32-4.27 8.6-6.54 12.87-2.27 4.25-4.55 8.44-6.84 12.56-2.3 4.12-4.44 8.15-6.45 12.07-.2.44-.44 1-.68 1.7-.24.7-.47 1.46-.7 2.26-.2.8-.42 1.67-.64 2.6-.22.9-.4 1.8-.52 2.68v.92c0 1.14.12 2.24.36 3.3.23 1.08.53 2.04.88 2.9.35.84.72 1.52 1.1 2.02.4.5.78.75 1.13.75.82 0 1.77-.18 2.84-.53 1.07-.35 2.2-.82 3.4-1.4 1.2-.6 2.44-1.28 3.7-2.04 1.27-.76 2.5-1.54 3.67-2.32 2.75-1.83 5.63-3.94 8.64-6.34l5.37 13.74c-3.88 2.8-7.72 5.28-11.52 7.47-1.66.9-3.37 1.82-5.14 2.7-1.78.9-3.55 1.7-5.34 2.4-1.8.7-3.54 1.26-5.24 1.67-1.7.42-3.3.63-4.78.63zm.06-52.38c1.97-3.5 4.05-7.43 6.25-11.8 2.2-4.35 4.3-8.85 6.26-13.48s3.67-9.24 5.1-13.84c1.45-4.6 2.37-8.9 2.76-12.87 0-1.25-.03-2.33-.1-3.23s-.27-1.34-.62-1.34c-1.26 0-2.63.82-4.1 2.46-1.45 1.62-2.9 3.84-4.37 6.63-1.47 2.8-2.86 6.05-4.2 9.76-1.33 3.7-2.52 7.65-3.56 11.84-1.04 4.2-1.87 8.5-2.48 12.93-.6 4.42-.92 8.73-.92 12.92zM185.68 77.43c1.26 2.53 2.2 5.2 2.85 8.02.63 2.82.95 5.5.95 8.1s-.3 5.16-.86 7.78-1.38 5.15-2.45 7.6c-1.07 2.43-2.38 4.73-3.93 6.87-1.55 2.13-3.32 4-5.3 5.56-2 1.57-4.16 2.8-6.52 3.73-2.35.9-4.86 1.37-7.52 1.37-3.85 0-7.13-.85-9.86-2.53-2.73-1.67-4.96-3.87-6.7-6.57-1.75-2.7-3.03-5.76-3.84-9.17s-1.2-6.85-1.2-10.34c0-4.8.7-9.3 2.15-13.46 1.44-4.16 3.5-7.8 6.2-10.86s5.96-5.5 9.84-7.27 8.24-2.65 13.08-2.65c4.15 0 8.03.64 11.66 1.93 3.62 1.3 7 3 10.18 5.17 3.16 2.16 6.1 4.64 8.83 7.43 2.73 2.8 5.27 5.68 7.63 8.64L209.64 96c-1.18-1.57-2.77-3.27-4.78-5.1-2-1.83-4.14-3.62-6.38-5.37-2.25-1.74-4.47-3.4-6.65-4.94-2.18-1.54-4.06-2.84-5.63-3.9l-.52.73zm-20.23 36.47c1.48 0 2.92-.76 4.32-2.26 1.4-1.5 2.62-3.4 3.67-5.7s1.88-4.82 2.52-7.6c.63-2.76.95-5.4.95-7.95 0-2-.15-3.88-.45-5.6-.3-1.73-.77-3.22-1.38-4.5-.6-1.25-1.4-2.26-2.35-3-.96-.74-2.12-1.1-3.47-1.1-1.8 0-3.5.75-5.1 2.28-1.62 1.53-3.04 3.48-4.26 5.86-1.24 2.38-2.2 5-2.9 7.9-.7 2.87-1.04 5.64-1.04 8.3 0 1.84.17 3.56.52 5.17.35 1.63.9 3.04 1.64 4.24.74 1.2 1.72 2.16 2.94 2.88 1.22.72 2.7 1.08 4.4 1.08zM225.22 85.75c1.8-2.36 3.8-4.9 6.02-7.6 2.23-2.7 4.54-5.22 6.94-7.56 2.4-2.34 4.8-4.3 7.17-5.84 2.38-1.54 4.6-2.32 6.7-2.32.53 0 1.12.1 1.78.3.65.2 1.27.55 1.86 1.08.58.52 1.07 1.25 1.47 2.2.4.93.58 2.14.58 3.62 0 2.97-.4 5.86-1.24 8.68-.82 2.8-1.72 5.63-2.7 8.44-1 2.8-1.88 5.7-2.7 8.6-.8 2.93-1.2 6-1.2 9.18 0 1.74.26 3.14.78 4.18.53 1.05 1.2 1.57 2.03 1.57 1.06 0 2.17-.22 3.35-.66 1.18-.44 2.36-1 3.54-1.7 1.17-.7 2.32-1.5 3.46-2.4 1.13-.9 2.2-1.8 3.2-2.77 2.4-2.23 4.76-4.76 7.08-7.6l1.1 17.42c-.78.6-1.77 1.36-2.97 2.28-1.2.9-2.53 1.9-4 2.9-1.46 1.04-3.04 2.07-4.74 3.12s-3.42 1.97-5.14 2.78c-1.73.8-3.46 1.47-5.18 2-1.73.52-3.37.78-4.94.78-2.4 0-4.5-.64-6.26-1.93-1.76-1.28-3.22-2.92-4.35-4.9-1.14-2-2-4.16-2.55-6.52-.57-2.35-.86-4.57-.86-6.67 0-1.4.2-2.96.56-4.68.37-1.73.83-3.46 1.38-5.2s1.15-3.45 1.83-5.1 1.3-3.15 1.9-4.46 1.1-2.4 1.54-3.22c.43-.83.72-1.3.85-1.44l-1.38-.2c-.74.48-2 1.7-3.76 3.67-1.77 1.97-3.77 4.45-6 7.44-2.22 3-4.52 6.35-6.9 10.08-2.38 3.73-4.53 7.6-6.45 11.56-.96 1.96-1.74 3.67-2.35 5.14-.6 1.46-1.2 2.66-1.8 3.6-.6.94-1.24 1.65-1.93 2.13-.7.48-1.6.72-2.7.72-1.43 0-2.56-.42-3.4-1.25-.82-.83-1.45-1.93-1.9-3.3-.43-1.38-.7-2.94-.84-4.68-.12-1.75-.2-3.54-.2-5.37 0-2.93.05-6.76.1-11.5.08-4.73.28-9.98.63-15.74s.85-11.82 1.5-18.2 1.6-12.66 2.8-18.88c1.2-6.22 2.7-12.16 4.5-17.8 1.82-5.66 4.02-10.64 6.62-14.94 2.6-4.28 5.64-7.7 9.13-10.23 3.5-2.53 7.5-3.8 12.05-3.8 2.35 0 4.28.35 5.8 1.05s2.7 1.68 3.6 2.94c.9 1.27 1.5 2.8 1.86 4.55.34 1.78.5 3.76.5 5.94 0 3.23-.45 6.8-1.36 10.74-.92 3.92-2.13 8-3.64 12.24s-3.22 8.52-5.14 12.86-3.88 8.56-5.9 12.64-3.97 7.93-5.9 11.55-3.67 6.8-5.15 9.56l1.32.92zm5.82-40.46c2.58-6.7 4.45-12.32 5.6-16.9 1.16-4.58 1.74-7.97 1.74-10.15 0-3.3-.44-4.97-1.3-4.97-1.15 0-2.83 1.85-5.05 5.56-2.23 3.7-4.85 9.1-7.86 16.17-.74 2.4-1.43 4.9-2.06 7.47-.62 2.58-1.2 5.14-1.7 7.7-.5 2.55-.95 5.06-1.37 7.52-.4 2.46-.77 4.8-1.08 7.03-.74 5.2-1.3 10.28-1.7 15.25 1.18-2.74 2.46-5.73 3.86-8.96 1.4-3.23 2.78-6.43 4.14-9.6 1.35-3.16 2.62-6.15 3.83-8.96 1.2-2.82 2.2-5.2 2.97-7.17zM338.2 110.43c-1 1.4-2.33 3.03-4 4.9-1.7 1.88-3.58 3.67-5.68 5.38s-4.34 3.15-6.74 4.32c-2.4 1.18-4.8 1.77-7.2 1.77-2.88 0-5.28-.93-7.2-2.8-1.92-1.84-3.58-4.54-4.98-8.07-1.05 1.22-2.33 2.46-3.86 3.73-1.53 1.26-3.2 2.4-5 3.43-1.82 1.02-3.7 1.86-5.67 2.5-1.96.67-3.93 1-5.9 1-2.1 0-4.13-.43-6.1-1.28-2-.85-3.76-2.07-5.28-3.67-1.54-1.6-2.76-3.53-3.68-5.82-.92-2.3-1.38-4.88-1.38-7.76 0-3.27.46-6.63 1.38-10.08.92-3.46 2.18-6.83 3.8-10.13 1.6-3.3 3.52-6.4 5.73-9.33 2.2-2.92 4.6-5.47 7.23-7.65 2.62-2.2 5.38-3.93 8.28-5.22 2.9-1.3 5.86-1.93 8.87-1.93 1 0 1.8.2 2.36.6.55.38 1.02.83 1.4 1.33.36.5.72 1 1.07 1.47.35.48.8.83 1.3 1.05.54.22 1.07.36 1.62.43s1.1.1 1.66.1c.48 0 .97 0 1.47-.04.5-.03 1-.04 1.47-.04.66 0 1.27.07 1.84.2.56.13 1.06.4 1.5.85.44.45.78 1.06 1.02 1.84.24.8.36 1.86.36 3.2 0 2.1-.22 4.43-.66 6.98-.44 2.56-.9 5.17-1.44 7.86-.52 2.68-1 5.37-1.44 8.05-.43 2.68-.65 5.23-.65 7.63 0 2.05.18 3.65.56 4.8.36 1.17 1.15 1.74 2.38 1.74.9 0 1.87-.23 2.88-.68 1-.46 2.02-1.06 3.04-1.8 1.02-.75 2.05-1.58 3.08-2.52 1.02-.94 2-1.9 2.9-2.92 2.15-2.35 4.3-5.02 6.5-7.98l3.13 14.53zm-55.9-5.18c0 1.1.08 2.15.23 3.18.16 1.02.43 1.94.82 2.75.4.8.92 1.46 1.57 1.96.66.5 1.5.76 2.5.76 1.6 0 3.07-.7 4.38-2.1 1.3-1.4 2.44-3.07 3.4-5.04.96-1.96 1.74-4 2.33-6.1.58-2.08.97-3.83 1.14-5.22l4-19.25c-1.8 0-3.54.44-5.24 1.33-1.7.9-3.3 2.1-4.8 3.63-1.52 1.53-2.9 3.28-4.17 5.24-1.27 1.97-2.36 4.03-3.27 6.2-.93 2.15-1.64 4.32-2.14 6.5-.5 2.18-.75 4.23-.75 6.16zM220 154.5l8.5-20.7h2.18l8.47 20.7h-2.8l-2.44-6.06h-8.68l-2.42 6.05H220zm9.6-17.66l-3.85 9.55h7.57l-3.73-9.56zM241.93 154.5v-20.7h8.62c.92 0 1.75.2 2.53.57.76.38 1.43.9 1.98 1.5.54.65.98 1.35 1.3 2.14.3.8.46 1.6.46 2.4 0 .86-.15 1.7-.44 2.5-.28.8-.7 1.5-1.23 2.12-.54.63-1.18 1.12-1.93 1.5-.75.36-1.58.54-2.5.54h-6.17v7.43h-2.62zm2.62-9.76h6.03c.55 0 1.04-.13 1.48-.34.43-.23.8-.53 1.1-.94.33-.4.57-.86.74-1.38s.28-1.08.28-1.67c0-.58-.12-1.15-.32-1.67-.2-.53-.48-1-.8-1.37-.35-.4-.76-.7-1.2-.9-.47-.23-.95-.32-1.45-.32h-5.85v8.6zM260.02 154.5v-20.7h8.64c.9 0 1.75.2 2.52.57.76.38 1.44.9 2 1.5.53.65.97 1.35 1.28 2.14.3.8.47 1.6.47 2.4 0 .86-.16 1.7-.44 2.5-.3.8-.7 1.5-1.25 2.12-.54.63-1.17 1.12-1.92 1.5-.76.36-1.58.54-2.5.54h-6.18v7.43h-2.63zm2.63-9.76h6.04c.53 0 1.02-.13 1.47-.34.42-.23.8-.53 1.1-.94.32-.4.56-.86.74-1.38s.28-1.08.28-1.67c0-.58-.1-1.15-.32-1.67-.2-.53-.47-1-.8-1.37-.35-.4-.75-.7-1.2-.9-.47-.23-.95-.32-1.45-.32h-5.86v8.6zM274.58 154.5l8.5-20.7h2.17l8.5 20.7h-2.83l-2.44-6.06h-8.68l-2.42 6.05h-2.8zm9.6-17.66l-3.86 9.55h7.6l-3.75-9.56zM296.5 154.5v-20.7h8.86c.9 0 1.75.2 2.53.57.76.38 1.42.9 1.97 1.5.56.65.98 1.35 1.3 2.14.32.8.47 1.6.47 2.4 0 .73-.1 1.42-.32 2.1-.2.68-.5 1.28-.88 1.82-.36.55-.83 1-1.36 1.4-.54.4-1.12.67-1.8.84l5.02 7.93h-2.97l-4.72-7.44h-5.47v7.43h-2.62zm2.63-9.76h6.26c.54 0 1.02-.13 1.47-.36.43-.23.8-.55 1.1-.95.33-.4.57-.86.74-1.38.2-.53.28-1.07.28-1.64s-.1-1.1-.3-1.63c-.2-.5-.5-.98-.83-1.38-.34-.4-.74-.7-1.2-.93-.44-.23-.93-.34-1.43-.34h-6.1v8.6zM329.92 152.16v2.33h-14.05v-20.7h13.78v2.34H318.5v6.7h9.7v2.18h-9.7v7.14h11.42zM333.64 154.5v-20.7h2.64v18.36h11.53v2.33h-14.16zM356.06 144c0-1.24.23-2.48.66-3.72.44-1.23 1.08-2.35 1.92-3.32.84-.97 1.9-1.77 3.12-2.38 1.22-.6 2.6-.9 4.16-.9 1.84 0 3.42.4 4.75 1.25 1.3.84 2.3 1.94 2.94 3.27l-2.06 1.34c-.3-.66-.68-1.22-1.12-1.65-.43-.47-.92-.83-1.44-1.1-.5-.28-1.04-.46-1.6-.6-.52-.1-1.05-.16-1.58-.16-1.15 0-2.16.24-3.05.7-.88.5-1.63 1.12-2.22 1.88-.6.77-1.05 1.63-1.37 2.6-.3.95-.44 1.93-.44 2.9 0 1.1.18 2.12.54 3.1.36 1 .86 1.86 1.5 2.62.64.74 1.4 1.35 2.26 1.8.88.45 1.84.68 2.87.68.53 0 1.1-.08 1.66-.2.57-.14 1.12-.36 1.65-.66.53-.3 1.02-.7 1.5-1.15.44-.43.8-1 1.1-1.64l2.2 1.2c-.34.78-.8 1.46-1.4 2.06-.6.6-1.26 1.1-2 1.5-.75.4-1.55.7-2.38.93-.83.22-1.66.32-2.44.32-1.43 0-2.73-.3-3.92-.93-1.18-.62-2.2-1.43-3.08-2.44-.86-1-1.53-2.13-2-3.4-.47-1.28-.72-2.58-.72-3.9zM385.5 154.63c-1.44 0-2.78-.28-3.97-.9-1.2-.57-2.2-1.36-3.07-2.33-.87-1-1.53-2.1-1.98-3.38-.48-1.26-.7-2.54-.7-3.87 0-1.38.23-2.7.74-3.96.5-1.28 1.18-2.4 2.05-3.36.88-1 1.9-1.75 3.1-2.33 1.2-.56 2.5-.84 3.9-.84 1.46 0 2.77.3 3.97.92 1.18.6 2.2 1.4 3.05 2.4.85.98 1.5 2.1 1.98 3.37.46 1.26.7 2.52.7 3.83 0 1.38-.25 2.7-.75 3.96-.5 1.26-1.17 2.38-2.03 3.33-.86.98-1.9 1.74-3.1 2.3-1.2.6-2.5.86-3.9.86zm-7.07-10.48c0 1.04.17 2.06.5 3.05.35.97.82 1.84 1.46 2.6.6.77 1.35 1.36 2.23 1.82.87.44 1.83.66 2.9.66 1.12 0 2.1-.24 2.98-.7.88-.48 1.63-1.1 2.25-1.88.6-.76 1.07-1.63 1.4-2.6.32-.98.47-1.97.47-2.95 0-1.05-.16-2.07-.5-3.06-.34-.98-.82-1.84-1.47-2.6-.62-.75-1.37-1.34-2.24-1.8-.85-.43-1.82-.66-2.86-.66-1.1 0-2.1.24-2.98.7-.87.48-1.62 1.08-2.22 1.84-.62.75-1.1 1.62-1.42 2.6-.33.96-.5 1.96-.5 2.97zM397.84 154.5v-3.26H400v3.25h-2.16z"/></g></svg>